<mxfile host="app.diagrams.net" modified="2023-09-23T03:22:09.132Z" agent="Mozilla/5.0 (Macintosh; Intel Mac OS X 10_15_7) AppleWebKit/537.36 (KHTML, like Gecko) Chrome/116.0.0.0 Safari/537.36" etag="QbRVCFepdraQsLEpdtLO" version="21.8.0" type="github">
  <diagram name="第 1 页" id="z-GHPNetECgqHe0ttnCC">
    <mxGraphModel dx="954" dy="507" grid="1" gridSize="10" guides="1" tooltips="1" connect="1" arrows="1" fold="1" page="1" pageScale="1" pageWidth="827" pageHeight="1169" math="0" shadow="0">
      <root>
        <mxCell id="0" />
        <mxCell id="1" parent="0" />
        <mxCell id="klfd_7IoOjAtCVwjvTYB-1" value="Decoder" style="rounded=1;whiteSpace=wrap;html=1;fontSize=18;" vertex="1" parent="1">
          <mxGeometry x="260" y="230" width="330" height="60" as="geometry" />
        </mxCell>
        <mxCell id="klfd_7IoOjAtCVwjvTYB-2" value="I" style="rounded=0;whiteSpace=wrap;html=1;" vertex="1" parent="1">
          <mxGeometry x="350" y="340" width="30" height="60" as="geometry" />
        </mxCell>
        <mxCell id="klfd_7IoOjAtCVwjvTYB-11" style="edgeStyle=orthogonalEdgeStyle;rounded=0;orthogonalLoop=1;jettySize=auto;html=1;exitX=0.5;exitY=0;exitDx=0;exitDy=0;entryX=0.5;entryY=1;entryDx=0;entryDy=0;" edge="1" parent="1" source="klfd_7IoOjAtCVwjvTYB-4" target="klfd_7IoOjAtCVwjvTYB-1">
          <mxGeometry relative="1" as="geometry" />
        </mxCell>
        <mxCell id="klfd_7IoOjAtCVwjvTYB-4" value="am" style="rounded=0;whiteSpace=wrap;html=1;" vertex="1" parent="1">
          <mxGeometry x="410" y="340" width="30" height="60" as="geometry" />
        </mxCell>
        <mxCell id="klfd_7IoOjAtCVwjvTYB-5" value="smart" style="rounded=0;whiteSpace=wrap;html=1;" vertex="1" parent="1">
          <mxGeometry x="470" y="340" width="40" height="60" as="geometry" />
        </mxCell>
        <mxCell id="klfd_7IoOjAtCVwjvTYB-6" value="[END]" style="rounded=0;whiteSpace=wrap;html=1;" vertex="1" parent="1">
          <mxGeometry x="530" y="340" width="60" height="60" as="geometry" />
        </mxCell>
        <mxCell id="klfd_7IoOjAtCVwjvTYB-8" value="[CLS]" style="rounded=0;whiteSpace=wrap;html=1;" vertex="1" parent="1">
          <mxGeometry x="260" y="340" width="60" height="60" as="geometry" />
        </mxCell>
        <mxCell id="klfd_7IoOjAtCVwjvTYB-9" style="edgeStyle=orthogonalEdgeStyle;rounded=0;orthogonalLoop=1;jettySize=auto;html=1;exitX=0.5;exitY=0;exitDx=0;exitDy=0;entryX=0.091;entryY=1.067;entryDx=0;entryDy=0;entryPerimeter=0;" edge="1" parent="1" source="klfd_7IoOjAtCVwjvTYB-8" target="klfd_7IoOjAtCVwjvTYB-1">
          <mxGeometry relative="1" as="geometry" />
        </mxCell>
        <mxCell id="klfd_7IoOjAtCVwjvTYB-46" style="edgeStyle=orthogonalEdgeStyle;rounded=0;orthogonalLoop=1;jettySize=auto;html=1;exitX=1;exitY=0.5;exitDx=0;exitDy=0;entryX=0;entryY=0.5;entryDx=0;entryDy=0;" edge="1" parent="1" source="klfd_7IoOjAtCVwjvTYB-14" target="klfd_7IoOjAtCVwjvTYB-2">
          <mxGeometry relative="1" as="geometry" />
        </mxCell>
        <mxCell id="klfd_7IoOjAtCVwjvTYB-14" value="" style="rounded=0;whiteSpace=wrap;html=1;" vertex="1" parent="1">
          <mxGeometry x="260" y="100" width="60" height="60" as="geometry" />
        </mxCell>
        <mxCell id="klfd_7IoOjAtCVwjvTYB-28" value="Prob" style="shape=table;startSize=30;container=1;collapsible=0;childLayout=tableLayout;fixedRows=1;rowLines=0;fontStyle=0;strokeColor=default;fontSize=16;" vertex="1" parent="1">
          <mxGeometry x="140" y="70" width="80" height="120" as="geometry" />
        </mxCell>
        <mxCell id="klfd_7IoOjAtCVwjvTYB-29" value="" style="shape=tableRow;horizontal=0;startSize=0;swimlaneHead=0;swimlaneBody=0;top=0;left=0;bottom=0;right=0;collapsible=0;dropTarget=0;fillColor=none;points=[[0,0.5],[1,0.5]];portConstraint=eastwest;strokeColor=inherit;fontSize=16;" vertex="1" parent="klfd_7IoOjAtCVwjvTYB-28">
          <mxGeometry y="30" width="80" height="30" as="geometry" />
        </mxCell>
        <mxCell id="klfd_7IoOjAtCVwjvTYB-30" value="I" style="shape=partialRectangle;html=1;whiteSpace=wrap;connectable=0;fillColor=none;top=0;left=0;bottom=0;right=0;overflow=hidden;pointerEvents=1;strokeColor=inherit;fontSize=16;" vertex="1" parent="klfd_7IoOjAtCVwjvTYB-29">
          <mxGeometry width="40" height="30" as="geometry">
            <mxRectangle width="40" height="30" as="alternateBounds" />
          </mxGeometry>
        </mxCell>
        <mxCell id="klfd_7IoOjAtCVwjvTYB-31" value="0.7" style="shape=partialRectangle;html=1;whiteSpace=wrap;connectable=0;fillColor=none;top=0;left=0;bottom=0;right=0;align=left;spacingLeft=6;overflow=hidden;strokeColor=inherit;fontSize=16;" vertex="1" parent="klfd_7IoOjAtCVwjvTYB-29">
          <mxGeometry x="40" width="40" height="30" as="geometry">
            <mxRectangle width="40" height="30" as="alternateBounds" />
          </mxGeometry>
        </mxCell>
        <mxCell id="klfd_7IoOjAtCVwjvTYB-32" value="" style="shape=tableRow;horizontal=0;startSize=0;swimlaneHead=0;swimlaneBody=0;top=0;left=0;bottom=0;right=0;collapsible=0;dropTarget=0;fillColor=none;points=[[0,0.5],[1,0.5]];portConstraint=eastwest;strokeColor=inherit;fontSize=16;" vertex="1" parent="klfd_7IoOjAtCVwjvTYB-28">
          <mxGeometry y="60" width="80" height="30" as="geometry" />
        </mxCell>
        <mxCell id="klfd_7IoOjAtCVwjvTYB-33" value="..." style="shape=partialRectangle;html=1;whiteSpace=wrap;connectable=0;fillColor=none;top=0;left=0;bottom=0;right=0;overflow=hidden;strokeColor=inherit;fontSize=16;" vertex="1" parent="klfd_7IoOjAtCVwjvTYB-32">
          <mxGeometry width="40" height="30" as="geometry">
            <mxRectangle width="40" height="30" as="alternateBounds" />
          </mxGeometry>
        </mxCell>
        <mxCell id="klfd_7IoOjAtCVwjvTYB-34" value="..." style="shape=partialRectangle;html=1;whiteSpace=wrap;connectable=0;fillColor=none;top=0;left=0;bottom=0;right=0;align=left;spacingLeft=6;overflow=hidden;strokeColor=inherit;fontSize=16;" vertex="1" parent="klfd_7IoOjAtCVwjvTYB-32">
          <mxGeometry x="40" width="40" height="30" as="geometry">
            <mxRectangle width="40" height="30" as="alternateBounds" />
          </mxGeometry>
        </mxCell>
        <mxCell id="klfd_7IoOjAtCVwjvTYB-35" value="" style="shape=tableRow;horizontal=0;startSize=0;swimlaneHead=0;swimlaneBody=0;top=0;left=0;bottom=0;right=0;collapsible=0;dropTarget=0;fillColor=none;points=[[0,0.5],[1,0.5]];portConstraint=eastwest;strokeColor=inherit;fontSize=16;" vertex="1" parent="klfd_7IoOjAtCVwjvTYB-28">
          <mxGeometry y="90" width="80" height="30" as="geometry" />
        </mxCell>
        <mxCell id="klfd_7IoOjAtCVwjvTYB-36" value="am" style="shape=partialRectangle;html=1;whiteSpace=wrap;connectable=0;fillColor=none;top=0;left=0;bottom=0;right=0;overflow=hidden;strokeColor=inherit;fontSize=16;" vertex="1" parent="klfd_7IoOjAtCVwjvTYB-35">
          <mxGeometry width="40" height="30" as="geometry">
            <mxRectangle width="40" height="30" as="alternateBounds" />
          </mxGeometry>
        </mxCell>
        <mxCell id="klfd_7IoOjAtCVwjvTYB-37" value="0.1" style="shape=partialRectangle;html=1;whiteSpace=wrap;connectable=0;fillColor=none;top=0;left=0;bottom=0;right=0;align=left;spacingLeft=6;overflow=hidden;strokeColor=inherit;fontSize=16;" vertex="1" parent="klfd_7IoOjAtCVwjvTYB-35">
          <mxGeometry x="40" width="40" height="30" as="geometry">
            <mxRectangle width="40" height="30" as="alternateBounds" />
          </mxGeometry>
        </mxCell>
        <mxCell id="klfd_7IoOjAtCVwjvTYB-38" value="" style="shape=doubleArrow;whiteSpace=wrap;html=1;" vertex="1" parent="1">
          <mxGeometry x="225" y="125" width="30" height="10" as="geometry" />
        </mxCell>
        <mxCell id="klfd_7IoOjAtCVwjvTYB-45" style="edgeStyle=orthogonalEdgeStyle;rounded=0;orthogonalLoop=1;jettySize=auto;html=1;entryX=0;entryY=0.5;entryDx=0;entryDy=0;" edge="1" parent="1" source="klfd_7IoOjAtCVwjvTYB-39" target="klfd_7IoOjAtCVwjvTYB-4">
          <mxGeometry relative="1" as="geometry" />
        </mxCell>
        <mxCell id="klfd_7IoOjAtCVwjvTYB-39" value="" style="rounded=0;whiteSpace=wrap;html=1;" vertex="1" parent="1">
          <mxGeometry x="350" y="100" width="30" height="60" as="geometry" />
        </mxCell>
        <mxCell id="klfd_7IoOjAtCVwjvTYB-47" style="edgeStyle=orthogonalEdgeStyle;rounded=0;orthogonalLoop=1;jettySize=auto;html=1;exitX=1;exitY=0.5;exitDx=0;exitDy=0;entryX=0;entryY=0.5;entryDx=0;entryDy=0;" edge="1" parent="1" source="klfd_7IoOjAtCVwjvTYB-40" target="klfd_7IoOjAtCVwjvTYB-5">
          <mxGeometry relative="1" as="geometry" />
        </mxCell>
        <mxCell id="klfd_7IoOjAtCVwjvTYB-40" value="" style="rounded=0;whiteSpace=wrap;html=1;" vertex="1" parent="1">
          <mxGeometry x="410" y="100" width="30" height="60" as="geometry" />
        </mxCell>
        <mxCell id="klfd_7IoOjAtCVwjvTYB-48" style="edgeStyle=orthogonalEdgeStyle;rounded=0;orthogonalLoop=1;jettySize=auto;html=1;exitX=1;exitY=0.5;exitDx=0;exitDy=0;entryX=0;entryY=0.5;entryDx=0;entryDy=0;" edge="1" parent="1" source="klfd_7IoOjAtCVwjvTYB-41" target="klfd_7IoOjAtCVwjvTYB-6">
          <mxGeometry relative="1" as="geometry" />
        </mxCell>
        <mxCell id="klfd_7IoOjAtCVwjvTYB-41" value="" style="rounded=0;whiteSpace=wrap;html=1;" vertex="1" parent="1">
          <mxGeometry x="480" y="100" width="30" height="60" as="geometry" />
        </mxCell>
        <mxCell id="klfd_7IoOjAtCVwjvTYB-42" style="edgeStyle=orthogonalEdgeStyle;rounded=0;orthogonalLoop=1;jettySize=auto;html=1;exitX=0.5;exitY=0;exitDx=0;exitDy=0;entryX=0.318;entryY=1.067;entryDx=0;entryDy=0;entryPerimeter=0;" edge="1" parent="1" source="klfd_7IoOjAtCVwjvTYB-2" target="klfd_7IoOjAtCVwjvTYB-1">
          <mxGeometry relative="1" as="geometry" />
        </mxCell>
        <mxCell id="klfd_7IoOjAtCVwjvTYB-43" style="edgeStyle=orthogonalEdgeStyle;rounded=0;orthogonalLoop=1;jettySize=auto;html=1;exitX=0.5;exitY=0;exitDx=0;exitDy=0;entryX=0.697;entryY=1.033;entryDx=0;entryDy=0;entryPerimeter=0;" edge="1" parent="1" source="klfd_7IoOjAtCVwjvTYB-5" target="klfd_7IoOjAtCVwjvTYB-1">
          <mxGeometry relative="1" as="geometry" />
        </mxCell>
        <mxCell id="klfd_7IoOjAtCVwjvTYB-44" style="edgeStyle=orthogonalEdgeStyle;rounded=0;orthogonalLoop=1;jettySize=auto;html=1;exitX=0.5;exitY=0;exitDx=0;exitDy=0;entryX=0.909;entryY=1.033;entryDx=0;entryDy=0;entryPerimeter=0;" edge="1" parent="1" source="klfd_7IoOjAtCVwjvTYB-6" target="klfd_7IoOjAtCVwjvTYB-1">
          <mxGeometry relative="1" as="geometry" />
        </mxCell>
        <mxCell id="klfd_7IoOjAtCVwjvTYB-49" value="" style="shape=singleArrow;direction=north;whiteSpace=wrap;html=1;" vertex="1" parent="1">
          <mxGeometry x="285" y="170" width="10" height="50" as="geometry" />
        </mxCell>
        <mxCell id="klfd_7IoOjAtCVwjvTYB-50" value="" style="shape=singleArrow;direction=north;whiteSpace=wrap;html=1;" vertex="1" parent="1">
          <mxGeometry x="360" y="170" width="10" height="50" as="geometry" />
        </mxCell>
        <mxCell id="klfd_7IoOjAtCVwjvTYB-51" value="" style="shape=singleArrow;direction=north;whiteSpace=wrap;html=1;" vertex="1" parent="1">
          <mxGeometry x="420" y="170" width="10" height="50" as="geometry" />
        </mxCell>
        <mxCell id="klfd_7IoOjAtCVwjvTYB-52" value="" style="shape=singleArrow;direction=north;whiteSpace=wrap;html=1;" vertex="1" parent="1">
          <mxGeometry x="485" y="170" width="10" height="50" as="geometry" />
        </mxCell>
      </root>
    </mxGraphModel>
  </diagram>
</mxfile>
